<?xml version="1.0" standalone="no"?>
<!DOCTYPE svg PUBLIC "-//W3C//DTD SVG 20010904//EN"
 "http://www.w3.org/TR/2001/REC-SVG-20010904/DTD/svg10.dtd">
<svg version="1.0" xmlns="http://www.w3.org/2000/svg"
 width="512.000000pt" height="512.000000pt" viewBox="0 0 512.000000 512.000000"
 preserveAspectRatio="xMidYMid meet">
<metadata>
Created by potrace 1.11, written by Peter Selinger 2001-2013
</metadata>
<g transform="translate(0.000000,512.000000) scale(0.100000,-0.100000)"
fill="#000000" stroke="none">
<path d="M513 5104 c-47 -20 -97 -75 -111 -121 -9 -31 -12 -588 -12 -2434 l1
-2394 23 -45 c13 -27 40 -57 67 -75 l44 -30 2032 0 2031 0 44 30 c23 17 54 51
68 75 l24 45 0 1805 c0 1676 -1 1809 -17 1850 -14 37 -125 153 -639 667 -534
533 -629 623 -663 632 -28 8 -469 11 -1450 10 -1182 -1 -1415 -3 -1442 -15z
m2628 -401 c1 -10 2 -241 3 -513 1 -430 4 -500 18 -531 19 -43 50 -74 99 -100
35 -17 68 -18 544 -19 279 0 510 -2 514 -4 3 -2 6 -708 5 -1568 l0 -1563
-1767 -3 -1767 -2 0 2160 0 2160 1175 0 c1112 0 1175 -1 1176 -17z m654 -518
l245 -245 -247 2 -248 3 -1 243 c0 133 1 242 3 242 2 0 114 -110 248 -245z"/>
<path d="M2090 2743 c-19 -8 -222 -154 -450 -326 -458 -344 -460 -346 -460
-447 0 -101 2 -102 467 -452 304 -228 434 -320 464 -328 89 -24 171 10 222 92
36 59 38 120 5 186 -20 42 -58 73 -327 275 l-303 229 28 18 c16 10 153 112
304 227 315 238 324 249 318 360 -3 51 -9 69 -34 100 -61 75 -148 100 -234 66z"/>
<path d="M2884 2747 c-113 -45 -163 -165 -113 -271 20 -43 51 -69 318 -269
163 -122 299 -226 303 -231 3 -5 -129 -112 -295 -236 -328 -247 -340 -259
-343 -354 -4 -90 48 -165 135 -194 48 -17 89 -15 137 7 45 20 785 571 847 630
80 76 82 204 4 279 -58 55 -820 623 -857 638 -36 15 -100 15 -136 1z"/>
</g>
</svg>
